{"title":"True Justice Dark Vengeance 2011 BRRip XviD Ac3 Feel-Free","uid":6675585,"size":1190630595,"categoryP":"video","categoryS":"movies","magnet":"?xt=urn:btih:5c7a46cc9ab73871e28cda3e1ed34631860e2988&amp;dn=True+Justice+Dark+Vengeance+2011+BRRip+XviD+Ac3+Feel-Free&amp;tr=udp%3A%2F%2Ftracker.openbittorrent.com%3A80&amp;tr=udp%3A%2F%2Fopen.demonii.com%3A1337&amp;tr=udp%3A%2F%2Ftracker.coppersurfer.tk%3A6969&amp;tr=udp%3A%2F%2Fexodus.desync.com%3A6969","seeders":0,"leechers":0,"uploader":".BONE.","files":9,"time":1316015582,"description":"\nGenre:Action | Crime | Drama\nLanguage:English\n &lt;a href=&quot;\nhttp://www.imdb.com/title/tt1697033/&quot; rel=&quot;nofollow&quot; target=&quot;_NEW&quot;&gt;\nhttp://www.imdb.com/title/tt1697033/&lt;/a&gt;\n\nSource:BluRay.1080p.x264.DTS.MySilu Thanks!\n\nFormat : AVI\nFormat/Info : Audio Video Interleave\nFile size : 1.11 GiB\nDuration : 1h 26mn\nOverall bit rate : 1 827 Kbps\n\nVideo\nID : 0\nFormat : MPEG-4 Visual\nFormat profile : Advanced Simple@L5\nFormat settings, BVOP : Yes\nFormat settings, QPel : No\nFormat settings, GMC : No warppoints\nFormat settings, Matrix : Default (H.263)\nCodec ID : XVID\nCodec ID/Hint : XviD\nDuration : 1h 26mn\nBit rate : 1 370 Kbps\nWidth : 640 pixels\nHeight : 360 pixels\nDisplay aspect ratio : 16:9\nFrame rate : 25.000 fps\nColor space : YUV\nChroma subsampling : 4:2:0\nBit depth : 8 bits\nScan type : Progressive\nBits/(Pixel*Frame) : 0.238\nStream size : 850 MiB (75%)\nWriting library : XviD 1.2.1 (UTC 2008-12-04)\n\nAudio\nID : 1\nFormat : AC-3\nFormat/Info : Audio Coding 3\nMode extension : CM (complete main)\nCodec ID : 2000\nDuration : 1h 26mn\nBit rate mode : Constant\nBit rate : 448 Kbps\nChannel(s) : 6 channels\nChannel positions : Front: L C R, Side: L R, LFE\nSampling rate : 48.0 KHz\nBit depth : 16 bits\nStream size : 278 MiB (25%)\nAlignment : Aligned on interleaves\nInterleave, duration : 40 ms (1.00 video frame)\nInterleave, preload duration : 512 ms\n\n\nPlot:\nSome lines should never be crossed\n","torrent":{"xt":"urn:btih:5c7a46cc9ab73871e28cda3e1ed34631860e2988","amp;dn":"True+Justice+Dark+Vengeance+2011+BRRip+XviD+Ac3+Feel-Free","amp;tr":["udp%3A%2F%2Ftracker.openbittorrent.com%3A80","udp%3A%2F%2Fopen.demonii.com%3A1337","udp%3A%2F%2Ftracker.coppersurfer.tk%3A6969","udp%3A%2F%2Fexodus.desync.com%3A6969"],"infoHash":"5c7a46cc9ab73871e28cda3e1ed34631860e2988","infoHashBuffer":{"type":"Buffer","data":[92,122,70,204,154,183,56,113,226,140,218,62,30,211,70,49,134,14,41,136]},"announce":[],"urlList":[]}}